{
  "accessors": [
    {
      "bufferView": 1,
      "componentType": 5126,
      "count": 8185,
      "max": [
        5.5324549674987793,
        0.88602399826049805,
        3.885422945022583
      ],
      "min": [
        -8.7462644577026367,
        -1.5400739908218384,
        1.9243869781494141
      ],
      "type": "VEC3"
    },
    {
      "bufferView": 1,
      "byteOffset": 98220,
      "componentType": 5126,
      "count": 8185,
      "max": [
        1,
        0.99997323751449585,
        0.99999535083770752
      ],
      "min": [
        -1,
        -0.99992138147354126,
        -0.99993747472763062
      ],
      "type": "VEC3"
    },
    {
      "bufferView": 2,
      "componentType": 5126,
      "count": 8185,
      "max": [
        0.99989080429077148,
        1,
        0.9999997615814209,
        1
      ],
      "min": [
        -0.99994748830795288,
        -1,
        -0.9998164176940918,
        -1
      ],
      "type": "VEC4"
    },
    {
      "bufferView": 0,
      "componentType": 5125,
      "count": 40890,
      "max": [
        8184
      ],
      "min": [
        0
      ],
      "type": "SCALAR"
    }
  ],
  "asset": {
    "extras": {
      "author": "honglinliii (https://sketchfab.com/honglinliii)",
      "license": "CC-BY-4.0 (http://creativecommons.org/licenses/by/4.0/)",
      "source": "https://sketchfab.com/models/f65020d792384c57a723d2a517710231",
      "title": "Nar1"
    },
    "generator": "Sketchfab-3.22.4",
    "version": "2.0"
  },
  "bufferViews": [
    {
      "buffer": 0,
      "byteLength": 163560,
      "byteOffset": 0,
      "name": "floatBufferViews",
      "target": 34963
    },
    {
      "buffer": 0,
      "byteLength": 196440,
      "byteOffset": 163560,
      "byteStride": 12,
      "name": "floatBufferViews",
      "target": 34962
    },
    {
      "buffer": 0,
      "byteLength": 130960,
      "byteOffset": 360000,
      "byteStride": 16,
      "name": "floatBufferViews",
      "target": 34962
    }
  ],
  "buffers": [
    {
      "byteLength": 490960,
      "uri": "scene.bin"
    }
  ],
  "materials": [
    {
      "doubleSided": true,
      "emissiveFactor": [
        0,
        0,
        0
      ],
      "name": "lambert2SG",
      "pbrMetallicRoughness": {
        "baseColorFactor": [
          1,
          1,
          1,
          1
        ],
        "metallicFactor": 0,
        "roughnessFactor": 1
      }
    }
  ],
  "meshes": [
    {
      "primitives": [
        {
          "attributes": {
            "NORMAL": 1,
            "POSITION": 0,
            "TANGENT": 2
          },
          "indices": 3,
          "material": 0,
          "mode": 4
        }
      ]
    }
  ],
  "nodes": [
    {
      "children": [
        1
      ],
      "name": "RootNode (gltf orientation matrix)",
      "rotation": [
        -0.70710678118654746,
        -0,
        -0,
        0.70710678118654757
      ]
    },
    {
      "children": [
        2
      ],
      "name": "RootNode (model correction matrix)"
    },
    {
      "children": [
        3
      ],
      "name": "nar1.obj.cleaner.materialmerger.gles"
    },
    {
      "mesh": 0,
      "name": ""
    }
  ],
  "scene": 0,
  "scenes": [
    {
      "name": "OSG_Scene",
      "nodes": [
        0
      ]
    }
  ]
}

